# xmcd
#
# Track frame offsets: 
#        150
#        12818
#        24069
#        36659
#        48396
#        63433
#        72424
#        86939
#        92671
#        107321
#        117717
#        128227
#        140120
#        154792
#        165930
#
# Disc length: 2358 seconds
#
# Revision: 0
# Processed by: cddbd v1.5.2PL0 Copyright (c) Steve Scherf et al.
# Submitted via: ExactAudioCopy v1.3
#
DISCID=c909340f
DTITLE=Various Artist - Simply Country - CD1
DYEAR=2012
DGENRE=Country
TTITLE0=Hank Williams - I'm So Lonesome, I Could Cry
TTITLE1=Lefty Frizzell - Forever (And Always)
TTITLE2=Johnny Cash - Folsom Prison Blues
TTITLE3=Lynn Anderson - Rodeo Cowboy
TTITLE4=Kenny Rogers - For The Good Times
TTITLE5=Townes Van Zandt - If I Needed You
TTITLE6=Jeannie C. Riley - Harper Valley P.T.A
TTITLE7=Loretta Lynn - The Pill (Live)
TTITLE8=The Louvin Brothers - In The Pines
TTITLE9=Waylon Jennings - Money (That's What I Want)
TTITLE10=Wanda Jackson - Making Believe
TTITLE11=Roy Acuff - Wabash Cannonball
TTITLE12=Red Foley - Old Shep
TTITLE13=Carl Smith - If Teardrops Were Pennies
TTITLE14=Buck Owens - Above And Beyond
EXTD=
EXTT0=
EXTT1=
EXTT2=
EXTT3=
EXTT4=
EXTT5=
EXTT6=
EXTT7=
EXTT8=
EXTT9=
EXTT10=
EXTT11=
EXTT12=
EXTT13=
EXTT14=
PLAYORDER=
